# MagicaVoxel @ Ephtracy

# group
o 

# material
mtllib CotéGrass.mtl
usemtl palette

# normals
vn -1 0 0
vn 1 0 0
vn 0 0 1
vn 0 0 -1
vn 0 -1 0
vn 0 1 0

# texcoords
vt 0.369141 0.5
vt 0.486328 0.5
vt 0.650391 0.5
vt 0.990234 0.5

# verts
v -1.8 3.6 -9.68575e-08
v -1.8 3.6 -0.1
v -1.8 5.2 -9.68575e-08
v -1.8 5.2 -0.1
v -1.8 5.7 -9.68575e-08
v -1.8 5.7 -0.1
v -1.8 5.9 -9.68575e-08
v -1.8 5.9 -0.1
v -1.8 6.2 -0.1
v -1.8 6.2 -3.6
v -1.8 6.3 -9.68575e-08
v -1.8 6.3 -3.6
v 1.8 3.6 -9.68575e-08
v 1.8 3.6 -0.1
v 1.8 5.2 -9.68575e-08
v 1.8 5.2 -0.1
v 1.8 5.7 -9.68575e-08
v 1.8 5.7 -0.1
v 1.8 5.9 -9.68575e-08
v 1.8 5.9 -0.1
v 1.8 6.2 -0.1
v 1.8 6.2 -3.6
v 1.8 6.3 -9.68575e-08
v 1.8 6.3 -3.6
v -1.8 3.6 -9.68575e-08
v -1.8 5.2 -9.68575e-08
v -1.8 5.7 -9.68575e-08
v -1.8 5.9 -9.68575e-08
v -1.8 6.3 -9.68575e-08
v -1.7 5.2 -9.68575e-08
v -1.7 5.4 -9.68575e-08
v -1.7 5.7 -9.68575e-08
v -1.7 5.9 -9.68575e-08
v -1.7 6 -9.68575e-08
v -1.6 5.2 -9.68575e-08
v -1.6 5.4 -9.68575e-08
v -1.6 6 -9.68575e-08
v -1.6 6.1 -9.68575e-08
v -1.5 6 -9.68575e-08
v -1.5 6.1 -9.68575e-08
v -1.4 5.7 -9.68575e-08
v -1.4 5.9 -9.68575e-08
v -1.4 6 -9.68575e-08
v -1.4 6.1 -9.68575e-08
v -1.3 5.2 -9.68575e-08
v -1.3 5.3 -9.68575e-08
v -1.1 5.9 -9.68575e-08
v -1.1 6.1 -9.68575e-08
v -1 5.2 -9.68575e-08
v -1 5.3 -9.68575e-08
v -0.9 5 -9.68575e-08
v -0.9 5.2 -9.68575e-08
v -0.9 5.7 -9.68575e-08
v -0.9 5.9 -9.68575e-08
v -0.9 6 -9.68575e-08
v -0.6 5.8 -9.68575e-08
v -0.6 5.9 -9.68575e-08
v -0.6 6 -9.68575e-08
v -0.5 5 -9.68575e-08
v -0.5 5.1 -9.68575e-08
v -0.5 5.7 -9.68575e-08
v -0.5 5.8 -9.68575e-08
v -0.4 5.1 -9.68575e-08
v -0.4 5.2 -9.68575e-08
v -0.4 5.6 -9.68575e-08
v -0.4 5.7 -9.68575e-08
v -0.4 5.9 -9.68575e-08
v -0.2 5.6 -9.68575e-08
v -0.2 5.7 -9.68575e-08
v -0.2 5.8 -9.68575e-08
v -0.2 6.1 -9.68575e-08
v -0.0999998 5.9 -9.68575e-08
v -0.0999998 6.1 -9.68575e-08
v 0.1 5.9 -9.68575e-08
v 0.1 6 -9.68575e-08
v 0.3 5.8 -9.68575e-08
v 0.3 5.9 -9.68575e-08
v 0.5 5.7 -9.68575e-08
v 0.5 5.9 -9.68575e-08
v 0.6 5.9 -9.68575e-08
v 0.6 6 -9.68575e-08
v 0.7 5.1 -9.68575e-08
v 0.7 5.2 -9.68575e-08
v 0.8 5.7 -9.68575e-08
v 0.8 5.9 -9.68575e-08
v 0.8 6.1 -9.68575e-08
v 1 5 -9.68575e-08
v 1 5.1 -9.68575e-08
v 1 6 -9.68575e-08
v 1 6.1 -9.68575e-08
v 1.2 5 -9.68575e-08
v 1.2 5.1 -9.68575e-08
v 1.2 6 -9.68575e-08
v 1.2 6.1 -9.68575e-08
v 1.3 6 -9.68575e-08
v 1.3 6.1 -9.68575e-08
v 1.4 5.6 -9.68575e-08
v 1.4 5.9 -9.68575e-08
v 1.4 6 -9.68575e-08
v 1.4 6.1 -9.68575e-08
v 1.5 5.1 -9.68575e-08
v 1.5 5.2 -9.68575e-08
v 1.5 5.6 -9.68575e-08
v 1.5 5.7 -9.68575e-08
v 1.7 5.9 -9.68575e-08
v 1.7 6.1 -9.68575e-08
v 1.8 3.6 -9.68575e-08
v 1.8 5.2 -9.68575e-08
v 1.8 5.7 -9.68575e-08
v 1.8 5.9 -9.68575e-08
v 1.8 6.3 -9.68575e-08
v -1.8 3.6 -0.1
v -1.8 5.2 -0.1
v -1.8 5.7 -0.1
v -1.8 5.9 -0.1
v -1.8 6.2 -0.1
v -1.7 5.2 -0.1
v -1.7 5.4 -0.1
v -1.7 5.7 -0.1
v -1.7 5.9 -0.1
v -1.7 6 -0.1
v -1.6 5.2 -0.1
v -1.6 5.4 -0.1
v -1.6 6 -0.1
v -1.6 6.1 -0.1
v -1.5 6 -0.1
v -1.5 6.1 -0.1
v -1.4 5.7 -0.1
v -1.4 5.9 -0.1
v -1.4 6 -0.1
v -1.4 6.1 -0.1
v -1.3 5.2 -0.1
v -1.3 5.3 -0.1
v -1.1 5.9 -0.1
v -1.1 6.1 -0.1
v -1 5.2 -0.1
v -1 5.3 -0.1
v -0.9 5 -0.1
v -0.9 5.2 -0.1
v -0.9 5.7 -0.1
v -0.9 5.9 -0.1
v -0.9 6 -0.1
v -0.6 5.8 -0.1
v -0.6 5.9 -0.1
v -0.6 6 -0.1
v -0.5 5 -0.1
v -0.5 5.1 -0.1
v -0.5 5.7 -0.1
v -0.5 5.8 -0.1
v -0.4 5.1 -0.1
v -0.4 5.2 -0.1
v -0.4 5.6 -0.1
v -0.4 5.7 -0.1
v -0.4 5.9 -0.1
v -0.2 5.6 -0.1
v -0.2 5.7 -0.1
v -0.2 5.8 -0.1
v -0.2 6.1 -0.1
v -0.0999998 5.9 -0.1
v -0.0999998 6.1 -0.1
v 0.1 5.9 -0.1
v 0.1 6 -0.1
v 0.3 5.8 -0.1
v 0.3 5.9 -0.1
v 0.5 5.7 -0.1
v 0.5 5.9 -0.1
v 0.6 5.9 -0.1
v 0.6 6 -0.1
v 0.7 5.1 -0.1
v 0.7 5.2 -0.1
v 0.8 5.7 -0.1
v 0.8 5.9 -0.1
v 0.8 6.1 -0.1
v 1 5 -0.1
v 1 5.1 -0.1
v 1 6 -0.1
v 1 6.1 -0.1
v 1.2 5 -0.1
v 1.2 5.1 -0.1
v 1.2 6 -0.1
v 1.2 6.1 -0.1
v 1.3 6 -0.1
v 1.3 6.1 -0.1
v 1.4 5.6 -0.1
v 1.4 5.9 -0.1
v 1.4 6 -0.1
v 1.4 6.1 -0.1
v 1.5 5.1 -0.1
v 1.5 5.2 -0.1
v 1.5 5.6 -0.1
v 1.5 5.7 -0.1
v 1.7 5.9 -0.1
v 1.7 6.1 -0.1
v 1.8 3.6 -0.1
v 1.8 5.2 -0.1
v 1.8 5.7 -0.1
v 1.8 5.9 -0.1
v 1.8 6.2 -0.1
v -1.8 6.2 -3.6
v -1.8 6.3 -3.6
v 1.8 6.2 -3.6
v 1.8 6.3 -3.6
v -1.8 3.6 -9.68575e-08
v 1.8 3.6 -9.68575e-08
v -1.8 3.6 -0.1
v 1.8 3.6 -0.1
v -1.8 6.2 -0.1
v 1.8 6.2 -0.1
v -1.8 6.2 -3.6
v 1.8 6.2 -3.6
v -1.8 6.3 -9.68575e-08
v 1.8 6.3 -9.68575e-08
v -1.8 6.3 -3.6
v 1.8 6.3 -3.6

# faces
f 3/1/1 2/1/1 1/1/1
f 4/1/1 2/1/1 3/1/1
f 5/4/1 4/4/1 3/4/1
f 6/4/1 4/4/1 5/4/1
f 7/3/1 6/3/1 5/3/1
f 8/3/1 6/3/1 7/3/1
f 9/2/1 8/2/1 7/2/1
f 11/2/1 9/2/1 7/2/1
f 11/2/1 10/2/1 9/2/1
f 12/2/1 10/2/1 11/2/1
f 13/1/2 14/1/2 15/1/2
f 15/1/2 14/1/2 16/1/2
f 15/4/2 16/4/2 17/4/2
f 17/4/2 16/4/2 18/4/2
f 17/3/2 18/3/2 19/3/2
f 19/3/2 18/3/2 20/3/2
f 19/2/2 20/2/2 21/2/2
f 19/2/2 21/2/2 23/2/2
f 21/2/2 22/2/2 23/2/2
f 23/2/2 22/2/2 24/2/2
f 30/1/3 26/1/3 25/1/3
f 30/4/3 27/4/3 26/4/3
f 31/4/3 27/4/3 30/4/3
f 32/3/3 28/3/3 27/3/3
f 32/4/3 27/4/3 31/4/3
f 33/2/3 29/2/3 28/2/3
f 33/3/3 28/3/3 32/3/3
f 34/2/3 29/2/3 33/2/3
f 35/1/3 31/1/3 30/1/3
f 35/1/3 30/1/3 25/1/3
f 36/4/3 32/4/3 31/4/3
f 36/1/3 31/1/3 35/1/3
f 36/4/3 33/4/3 32/4/3
f 37/2/3 29/2/3 34/2/3
f 37/3/3 34/3/3 33/3/3
f 38/2/3 29/2/3 37/2/3
f 39/3/3 37/3/3 33/3/3
f 39/3/3 38/3/3 37/3/3
f 40/2/3 29/2/3 38/2/3
f 40/3/3 38/3/3 39/3/3
f 41/4/3 33/4/3 36/4/3
f 41/4/3 36/4/3 35/4/3
f 42/3/3 39/3/3 33/3/3
f 42/4/3 33/4/3 41/4/3
f 43/2/3 40/2/3 39/2/3
f 43/3/3 39/3/3 42/3/3
f 44/2/3 29/2/3 40/2/3
f 44/2/3 40/2/3 43/2/3
f 45/1/3 35/1/3 25/1/3
f 45/4/3 41/4/3 35/4/3
f 46/4/3 41/4/3 45/4/3
f 47/3/3 43/3/3 42/3/3
f 47/3/3 42/3/3 41/3/3
f 47/3/3 44/3/3 43/3/3
f 48/2/3 29/2/3 44/2/3
f 48/3/3 44/3/3 47/3/3
f 49/1/3 46/1/3 45/1/3
f 49/1/3 45/1/3 25/1/3
f 50/4/3 41/4/3 46/4/3
f 50/1/3 46/1/3 49/1/3
f 51/1/3 49/1/3 25/1/3
f 52/4/3 50/4/3 49/4/3
f 52/1/3 49/1/3 51/1/3
f 53/3/3 47/3/3 41/3/3
f 53/4/3 50/4/3 52/4/3
f 53/4/3 41/4/3 50/4/3
f 54/2/3 48/2/3 47/2/3
f 54/3/3 47/3/3 53/3/3
f 55/2/3 48/2/3 54/2/3
f 56/4/3 52/4/3 51/4/3
f 56/4/3 53/4/3 52/4/3
f 56/4/3 54/4/3 53/4/3
f 57/3/3 55/3/3 54/3/3
f 57/4/3 54/4/3 56/4/3
f 58/2/3 48/2/3 55/2/3
f 58/3/3 55/3/3 57/3/3
f 59/1/3 51/1/3 25/1/3
f 59/4/3 56/4/3 51/4/3
f 60/4/3 56/4/3 59/4/3
f 61/4/3 56/4/3 60/4/3
f 62/3/3 57/3/3 56/3/3
f 62/4/3 56/4/3 61/4/3
f 63/4/3 61/4/3 60/4/3
f 63/1/3 60/1/3 59/1/3
f 64/4/3 61/4/3 63/4/3
f 65/4/3 61/4/3 64/4/3
f 66/3/3 62/3/3 61/3/3
f 66/4/3 61/4/3 65/4/3
f 67/3/3 57/3/3 62/3/3
f 67/3/3 62/3/3 66/3/3
f 67/2/3 58/2/3 57/2/3
f 68/3/3 66/3/3 65/3/3
f 68/4/3 65/4/3 64/4/3
f 69/2/3 67/2/3 66/2/3
f 69/3/3 66/3/3 68/3/3
f 70/2/3 67/2/3 69/2/3
f 71/2/3 58/2/3 67/2/3
f 71/2/3 67/2/3 70/2/3
f 71/2/3 48/2/3 58/2/3
f 71/2/3 29/2/3 48/2/3
f 72/3/3 71/3/3 70/3/3
f 73/2/3 29/2/3 71/2/3
f 73/3/3 71/3/3 72/3/3
f 74/3/3 72/3/3 70/3/3
f 74/2/3 73/2/3 72/2/3
f 75/2/3 73/2/3 74/2/3
f 76/4/3 70/4/3 69/4/3
f 76/4/3 69/4/3 68/4/3
f 76/3/3 75/3/3 74/3/3
f 76/3/3 74/3/3 70/3/3
f 77/3/3 75/3/3 76/3/3
f 78/4/3 76/4/3 68/4/3
f 78/4/3 77/4/3 76/4/3
f 79/3/3 75/3/3 77/3/3
f 79/4/3 77/4/3 78/4/3
f 80/3/3 79/3/3 78/3/3
f 80/3/3 75/3/3 79/3/3
f 81/2/3 73/2/3 75/2/3
f 81/3/3 75/3/3 80/3/3
f 82/1/3 63/1/3 59/1/3
f 82/1/3 64/1/3 63/1/3
f 83/4/3 68/4/3 64/4/3
f 83/1/3 64/1/3 82/1/3
f 83/4/3 78/4/3 68/4/3
f 84/3/3 80/3/3 78/3/3
f 84/4/3 78/4/3 83/4/3
f 84/4/3 83/4/3 82/4/3
f 85/2/3 81/2/3 80/2/3
f 85/3/3 80/3/3 84/3/3
f 86/2/3 29/2/3 73/2/3
f 86/2/3 81/2/3 85/2/3
f 86/2/3 73/2/3 81/2/3
f 87/1/3 82/1/3 59/1/3
f 87/1/3 59/1/3 25/1/3
f 88/4/3 85/4/3 84/4/3
f 88/1/3 82/1/3 87/1/3
f 88/4/3 84/4/3 82/4/3
f 89/3/3 86/3/3 85/3/3
f 90/2/3 29/2/3 86/2/3
f 90/3/3 86/3/3 89/3/3
f 91/1/3 87/1/3 25/1/3
f 91/4/3 88/4/3 87/4/3
f 92/4/3 85/4/3 88/4/3
f 92/4/3 88/4/3 91/4/3
f 93/3/3 89/3/3 85/3/3
f 93/2/3 90/2/3 89/2/3
f 94/2/3 29/2/3 90/2/3
f 94/2/3 90/2/3 93/2/3
f 95/3/3 93/3/3 85/3/3
f 95/3/3 94/3/3 93/3/3
f 96/2/3 29/2/3 94/2/3
f 96/3/3 94/3/3 95/3/3
f 97/4/3 85/4/3 92/4/3
f 98/3/3 95/3/3 85/3/3
f 98/4/3 85/4/3 97/4/3
f 99/2/3 96/2/3 95/2/3
f 99/3/3 95/3/3 98/3/3
f 100/2/3 29/2/3 96/2/3
f 100/2/3 96/2/3 99/2/3
f 101/4/3 97/4/3 92/4/3
f 101/1/3 92/1/3 91/1/3
f 102/4/3 97/4/3 101/4/3
f 103/3/3 99/3/3 98/3/3
f 103/4/3 97/4/3 102/4/3
f 103/3/3 100/3/3 99/3/3
f 103/3/3 98/3/3 97/3/3
f 104/3/3 100/3/3 103/3/3
f 105/3/3 100/3/3 104/3/3
f 106/2/3 29/2/3 100/2/3
f 106/3/3 100/3/3 105/3/3
f 107/1/3 102/1/3 101/1/3
f 107/1/3 91/1/3 25/1/3
f 107/1/3 101/1/3 91/1/3
f 108/4/3 104/4/3 103/4/3
f 108/1/3 102/1/3 107/1/3
f 108/4/3 103/4/3 102/4/3
f 109/3/3 105/3/3 104/3/3
f 109/4/3 104/4/3 108/4/3
f 110/2/3 106/2/3 105/2/3
f 110/3/3 105/3/3 109/3/3
f 111/2/3 29/2/3 106/2/3
f 111/2/3 106/2/3 110/2/3
f 112/1/4 113/1/4 117/1/4
f 113/4/4 114/4/4 117/4/4
f 117/4/4 114/4/4 118/4/4
f 114/3/4 115/3/4 119/3/4
f 118/4/4 114/4/4 119/4/4
f 115/2/4 116/2/4 120/2/4
f 119/3/4 115/3/4 120/3/4
f 120/2/4 116/2/4 121/2/4
f 117/1/4 118/1/4 122/1/4
f 112/1/4 117/1/4 122/1/4
f 118/4/4 119/4/4 123/4/4
f 122/1/4 118/1/4 123/1/4
f 119/4/4 120/4/4 123/4/4
f 121/2/4 116/2/4 124/2/4
f 120/3/4 121/3/4 124/3/4
f 124/2/4 116/2/4 125/2/4
f 120/3/4 124/3/4 126/3/4
f 124/3/4 125/3/4 126/3/4
f 125/2/4 116/2/4 127/2/4
f 126/3/4 125/3/4 127/3/4
f 123/4/4 120/4/4 128/4/4
f 122/4/4 123/4/4 128/4/4
f 120/3/4 126/3/4 129/3/4
f 128/4/4 120/4/4 129/4/4
f 126/2/4 127/2/4 130/2/4
f 129/3/4 126/3/4 130/3/4
f 127/2/4 116/2/4 131/2/4
f 130/2/4 127/2/4 131/2/4
f 112/1/4 122/1/4 132/1/4
f 122/4/4 128/4/4 132/4/4
f 132/4/4 128/4/4 133/4/4
f 129/3/4 130/3/4 134/3/4
f 128/3/4 129/3/4 134/3/4
f 130/3/4 131/3/4 134/3/4
f 131/2/4 116/2/4 135/2/4
f 134/3/4 131/3/4 135/3/4
f 132/1/4 133/1/4 136/1/4
f 112/1/4 132/1/4 136/1/4
f 133/4/4 128/4/4 137/4/4
f 136/1/4 133/1/4 137/1/4
f 112/1/4 136/1/4 138/1/4
f 136/4/4 137/4/4 139/4/4
f 138/1/4 136/1/4 139/1/4
f 128/3/4 134/3/4 140/3/4
f 139/4/4 137/4/4 140/4/4
f 137/4/4 128/4/4 140/4/4
f 134/2/4 135/2/4 141/2/4
f 140/3/4 134/3/4 141/3/4
f 141/2/4 135/2/4 142/2/4
f 138/4/4 139/4/4 143/4/4
f 139/4/4 140/4/4 143/4/4
f 140/4/4 141/4/4 143/4/4
f 141/3/4 142/3/4 144/3/4
f 143/4/4 141/4/4 144/4/4
f 142/2/4 135/2/4 145/2/4
f 144/3/4 142/3/4 145/3/4
f 112/1/4 138/1/4 146/1/4
f 138/4/4 143/4/4 146/4/4
f 146/4/4 143/4/4 147/4/4
f 147/4/4 143/4/4 148/4/4
f 143/3/4 144/3/4 149/3/4
f 148/4/4 143/4/4 149/4/4
f 147/4/4 148/4/4 150/4/4
f 146/1/4 147/1/4 150/1/4
f 150/4/4 148/4/4 151/4/4
f 151/4/4 148/4/4 152/4/4
f 148/3/4 149/3/4 153/3/4
f 152/4/4 148/4/4 153/4/4
f 149/3/4 144/3/4 154/3/4
f 153/3/4 149/3/4 154/3/4
f 144/2/4 145/2/4 154/2/4
f 152/3/4 153/3/4 155/3/4
f 151/4/4 152/4/4 155/4/4
f 153/2/4 154/2/4 156/2/4
f 155/3/4 153/3/4 156/3/4
f 156/2/4 154/2/4 157/2/4
f 154/2/4 145/2/4 158/2/4
f 157/2/4 154/2/4 158/2/4
f 145/2/4 135/2/4 158/2/4
f 135/2/4 116/2/4 158/2/4
f 157/3/4 158/3/4 159/3/4
f 158/2/4 116/2/4 160/2/4
f 159/3/4 158/3/4 160/3/4
f 157/3/4 159/3/4 161/3/4
f 159/2/4 160/2/4 161/2/4
f 161/2/4 160/2/4 162/2/4
f 156/4/4 157/4/4 163/4/4
f 155/4/4 156/4/4 163/4/4
f 161/3/4 162/3/4 163/3/4
f 157/3/4 161/3/4 163/3/4
f 163/3/4 162/3/4 164/3/4
f 155/4/4 163/4/4 165/4/4
f 163/4/4 164/4/4 165/4/4
f 164/3/4 162/3/4 166/3/4
f 165/4/4 164/4/4 166/4/4
f 165/3/4 166/3/4 167/3/4
f 166/3/4 162/3/4 167/3/4
f 162/2/4 160/2/4 168/2/4
f 167/3/4 162/3/4 168/3/4
f 146/1/4 150/1/4 169/1/4
f 150/1/4 151/1/4 169/1/4
f 151/4/4 155/4/4 170/4/4
f 169/1/4 151/1/4 170/1/4
f 155/4/4 165/4/4 170/4/4
f 165/3/4 167/3/4 171/3/4
f 170/4/4 165/4/4 171/4/4
f 169/4/4 170/4/4 171/4/4
f 167/2/4 168/2/4 172/2/4
f 171/3/4 167/3/4 172/3/4
f 160/2/4 116/2/4 173/2/4
f 172/2/4 168/2/4 173/2/4
f 168/2/4 160/2/4 173/2/4
f 146/1/4 169/1/4 174/1/4
f 112/1/4 146/1/4 174/1/4
f 171/4/4 172/4/4 175/4/4
f 174/1/4 169/1/4 175/1/4
f 169/4/4 171/4/4 175/4/4
f 172/3/4 173/3/4 176/3/4
f 173/2/4 116/2/4 177/2/4
f 176/3/4 173/3/4 177/3/4
f 112/1/4 174/1/4 178/1/4
f 174/4/4 175/4/4 178/4/4
f 175/4/4 172/4/4 179/4/4
f 178/4/4 175/4/4 179/4/4
f 172/3/4 176/3/4 180/3/4
f 176/2/4 177/2/4 180/2/4
f 177/2/4 116/2/4 181/2/4
f 180/2/4 177/2/4 181/2/4
f 172/3/4 180/3/4 182/3/4
f 180/3/4 181/3/4 182/3/4
f 181/2/4 116/2/4 183/2/4
f 182/3/4 181/3/4 183/3/4
f 179/4/4 172/4/4 184/4/4
f 172/3/4 182/3/4 185/3/4
f 184/4/4 172/4/4 185/4/4
f 182/2/4 183/2/4 186/2/4
f 185/3/4 182/3/4 186/3/4
f 183/2/4 116/2/4 187/2/4
f 186/2/4 183/2/4 187/2/4
f 179/4/4 184/4/4 188/4/4
f 178/1/4 179/1/4 188/1/4
f 188/4/4 184/4/4 189/4/4
f 185/3/4 186/3/4 190/3/4
f 189/4/4 184/4/4 190/4/4
f 186/3/4 187/3/4 190/3/4
f 184/3/4 185/3/4 190/3/4
f 190/3/4 187/3/4 191/3/4
f 191/3/4 187/3/4 192/3/4
f 187/2/4 116/2/4 193/2/4
f 192/3/4 187/3/4 193/3/4
f 188/1/4 189/1/4 194/1/4
f 112/1/4 178/1/4 194/1/4
f 178/1/4 188/1/4 194/1/4
f 190/4/4 191/4/4 195/4/4
f 194/1/4 189/1/4 195/1/4
f 189/4/4 190/4/4 195/4/4
f 191/3/4 192/3/4 196/3/4
f 195/4/4 191/4/4 196/4/4
f 192/2/4 193/2/4 197/2/4
f 196/3/4 192/3/4 197/3/4
f 193/2/4 116/2/4 198/2/4
f 197/2/4 193/2/4 198/2/4
f 199/2/4 200/2/4 201/2/4
f 201/2/4 200/2/4 202/2/4
f 205/1/5 204/1/5 203/1/5
f 206/1/5 204/1/5 205/1/5
f 209/2/5 208/2/5 207/2/5
f 210/2/5 208/2/5 209/2/5
f 211/2/6 212/2/6 213/2/6
f 213/2/6 212/2/6 214/2/6
